<svg xmlns="http://www.w3.org/2000/svg" viewBox="0 0 32 32" fill="none">
  <defs>
    <!-- Dark Premium Background Gradient -->
    <linearGradient id="bgGrad" x1="16" y1="0" x2="16" y2="32" gradientUnits="userSpaceOnUse">
      <stop offset="0%" stop-color="#1E293B" />
      <stop offset="100%" stop-color="#0F172A" />
    </linearGradient>
    
    <!-- Vivid Orange Gradient for Letters -->
    <linearGradient id="textGrad" x1="6" y1="6" x2="26" y2="26" gradientUnits="userSpaceOnUse">
      <stop offset="0%" stop-color="#FF6B26" />
      <stop offset="100%" stop-color="#FF4D00" />
    </linearGradient>
  </defs>

  <!-- App Icon Base (Squircle) -->
  <rect x="0" y="0" width="32" height="32" rx="8" fill="url(#bgGrad)" />
  
  <!-- Subtle Inner Bezel -->
  <rect x="0.5" y="0.5" width="31" height="31" rx="7.5" stroke="white" stroke-opacity="0.1" stroke-width="1" />

  <!-- "BP" Monogram -->
  <g transform="translate(5, 8)">
    <!-- B -->
    <path 
      d="M0 0H6C8.20914 0 10 1.79086 10 4C10 5.19469 9.47879 6.26706 8.65128 7C9.47879 7.73294 10 8.80531 10 10C10 12.2091 8.20914 14 6 14H0V0ZM4 3V5.5H5.5C6.32843 5.5 7 4.82843 7 4C7 3.17157 6.32843 2.5 5.5 2.5H4V3ZM4 8.5V11.5H6C6.82843 11.5 7.5 10.8284 7.5 10C7.5 9.17157 6.82843 8.5 6 8.5H4Z" 
      fill="url(#textGrad)" 
    />
    
    <!-- P (Offset to right) -->
    <path 
      d="M12 0H17C20.3137 0 23 2.68629 23 6C23 9.31371 20.3137 12 17 12H16V16H12V0ZM16 4V8H17C18.1046 8 19 7.10457 19 6C19 4.89543 18.1046 4 17 4H16Z" 
      fill="white" 
    />
  </g>
</svg>